<svg version="1.1" width="600" height="600" xmlns="http://www.w3.org/2000/svg" viewBox="-1800 -1800 3600 3600">
<g transform="scale(1, -1)">
<rect x="-1800" y="-1800" width="600" height="600" fill="#444444"/>
<rect x="-1800" y="-1200" width="600" height="600" fill="#333333"/>
<rect x="-1800" y="-600" width="600" height="600" fill="#444444"/>
<rect x="-1800" y="0" width="600" height="600" fill="#333333"/>
<rect x="-1800" y="600" width="600" height="600" fill="#444444"/>
<rect x="-1800" y="1200" width="600" height="600" fill="#333333"/>
<rect x="-1200" y="-1800" width="600" height="600" fill="#333333"/>
<rect x="-1200" y="-1200" width="600" height="600" fill="#444444"/>
<rect x="-1200" y="-600" width="600" height="600" fill="#333333"/>
<rect x="-1200" y="0" width="600" height="600" fill="#444444"/>
<rect x="-1200" y="600" width="600" height="600" fill="#333333"/>
<rect x="-1200" y="1200" width="600" height="600" fill="#444444"/>
<rect x="-600" y="-1800" width="600" height="600" fill="#444444"/>
<rect x="-600" y="-1200" width="600" height="600" fill="#333333"/>
<rect x="-600" y="-600" width="600" height="600" fill="#444444"/>
<rect x="-600" y="0" width="600" height="600" fill="#333333"/>
<rect x="-600" y="600" width="600" height="600" fill="#444444"/>
<rect x="-600" y="1200" width="600" height="600" fill="#333333"/>
<rect x="0" y="-1800" width="600" height="600" fill="#333333"/>
<rect x="0" y="-1200" width="600" height="600" fill="#444444"/>
<rect x="0" y="-600" width="600" height="600" fill="#333333"/>
<rect x="0" y="0" width="600" height="600" fill="#444444"/>
<rect x="0" y="600" width="600" height="600" fill="#333333"/>
<rect x="0" y="1200" width="600" height="600" fill="#444444"/>
<rect x="600" y="-1800" width="600" height="600" fill="#444444"/>
<rect x="600" y="-1200" width="600" height="600" fill="#333333"/>
<rect x="600" y="-600" width="600" height="600" fill="#444444"/>
<rect x="600" y="0" width="600" height="600" fill="#333333"/>
<rect x="600" y="600" width="600" height="600" fill="#444444"/>
<rect x="600" y="1200" width="600" height="600" fill="#333333"/>
<rect x="1200" y="-1800" width="600" height="600" fill="#333333"/>
<rect x="1200" y="-1200" width="600" height="600" fill="#444444"/>
<rect x="1200" y="-600" width="600" height="600" fill="#333333"/>
<rect x="1200" y="0" width="600" height="600" fill="#444444"/>
<rect x="1200" y="600" width="600" height="600" fill="#333333"/>
<rect x="1200" y="1200" width="600" height="600" fill="#444444"/>
<line x1="-1490" y1="-1800" x2="-1490" y2="1800" stroke="#cccccc" stroke-width="25"/>
<line x1="-30" y1="-1800" x2="-30" y2="1800" stroke="#cccccc" stroke-width="25"/>
<line x1="30" y1="-1800" x2="30" y2="1800" stroke="#cccccc" stroke-width="25"/>
<line x1="1490" y1="-1800" x2="1490" y2="1800" stroke="#cccccc" stroke-width="25"/>
<line x1="-1800" y1="-1490" x2="-1490" y2="-1800" stroke="#cccccc" stroke-width="25"/>
<line x1="1800" y1="-1490" x2="1490" y2="-1800" stroke="#cccccc" stroke-width="25"/>
<line x1="-1800" y1="1490" x2="-1490" y2="1800" stroke="#cccccc" stroke-width="25"/>
<line x1="1800" y1="1490" x2="1490" y2="1800" stroke="#cccccc" stroke-width="25"/>
<rect x="-420" y="-420" width="840" height="840" transform="rotate(45)" stroke="#cccc55" fill="none" stroke-width="51"/>
<polygon points="-1710,0 -1735,43 -1785,43 -1810,0 -1785,-43 -1735,-43" fill="#cc5555" stroke="#000000" stroke-width="3"/>
<polygon points="1810,0 1785,43 1735,43 1710,0 1735,-43 1785,-43" fill="#5555cc" stroke="#000000" stroke-width="3"/>
<polygon points="50,1760 25,1803 -25,1803 -50,1760 -25,1717 25,1717" fill="#cccc55" stroke="#000000" stroke-width="3"/>
<polygon points="50,-600 25,-557 -25,-557 -50,-600 -25,-643 25,-643" fill="#cccc55" stroke="#000000" stroke-width="3"/>
<polygon points="50,-1760 25,-1717 -25,-1717 -50,-1760 -25,-1803 25,-1803" fill="#cccc55" stroke="#000000" stroke-width="3"/>
<polygon points="-1074,600 -1137,709 -1263,709 -1326,600 -1263,491 -1137,491" fill="#cccc55" stroke="#000000" stroke-width="3"/>
<polygon points="-1100,600 -1150,686 -1250,686 -1300,600 -1250,514 -1150,514" fill="#333333" stroke="#000000" stroke-width="3"/>
<polygon points="-1150,600 -1175,643 -1225,643 -1250,600 -1225,557 -1175,557" fill="#cccc55" stroke="#000000" stroke-width="3"/>
<polygon points="1626,600 1563,709 1437,709 1374,600 1437,491 1563,491" fill="#cccc55" stroke="#000000" stroke-width="3"/>
<polygon points="1600,600 1550,686 1450,686 1400,600 1450,514 1550,514" fill="#333333" stroke="#000000" stroke-width="3"/>
<polygon points="1550,600 1525,643 1475,643 1450,600 1475,557 1525,557" fill="#cccc55" stroke="#000000" stroke-width="3"/>
<polygon points="1326,0 1263,109 1137,109 1074,0 1137,-109 1263,-109" fill="#cccc55" stroke="#000000" stroke-width="3"/>
<polygon points="1300,0 1250,86 1150,86 1100,0 1150,-86 1250,-86" fill="#333333" stroke="#000000" stroke-width="3"/>
<polygon points="1250,0 1225,43 1175,43 1150,0 1175,-43 1225,-43" fill="#cccc55" stroke="#000000" stroke-width="3"/>
<polygon points="-1074,-600 -1137,-491 -1263,-491 -1326,-600 -1263,-709 -1137,-709" fill="#cccc55" stroke="#000000" stroke-width="3"/>
<polygon points="-1100,-600 -1150,-514 -1250,-514 -1300,-600 -1250,-686 -1150,-686" fill="#333333" stroke="#000000" stroke-width="3"/>
<polygon points="-1150,-600 -1175,-557 -1225,-557 -1250,-600 -1225,-643 -1175,-643" fill="#cccc55" stroke="#000000" stroke-width="3"/>
<polygon points="1626,-600 1563,-491 1437,-491 1374,-600 1437,-709 1563,-709" fill="#cccc55" stroke="#000000" stroke-width="3"/>
<polygon points="1600,-600 1550,-514 1450,-514 1400,-600 1450,-686 1550,-686" fill="#333333" stroke="#000000" stroke-width="3"/>
<polygon points="1550,-600 1525,-557 1475,-557 1450,-600 1475,-643 1525,-643" fill="#cccc55" stroke="#000000" stroke-width="3"/>
<path d="M 1111,1500 a 89,89 0 1,0 178,0" fill="#7777cc"/>
<path d="M 1111,1500 a 89,89 0 1,1 178,0" fill="#cc7777"/>
<path d="M 1111,1500 a 89 89 0 0 0 178 0 a 89 89 0 0 0 -178 0 z m 51 0 a 38 38 0 0 0 76 0 a 38 38 0 0 0 -76 0 z" fill="#5555cc" stroke="#000000" stroke-width="3" fill-rule="evenodd"/>
<path d="M 1111,1200 a 89,89 0 1,0 178,0" fill="#7777cc"/>
<path d="M 1111,1200 a 89,89 0 1,1 178,0" fill="#cc7777"/>
<path d="M 1111,1200 a 89 89 0 0 0 178 0 a 89 89 0 0 0 -178 0 z m 51 0 a 38 38 0 0 0 76 0 a 38 38 0 0 0 -76 0 z" fill="#5555cc" stroke="#000000" stroke-width="3" fill-rule="evenodd"/>
<path d="M 1411,1200 a 89,89 0 1,0 178,0" fill="#7777cc"/>
<path d="M 1411,1200 a 89,89 0 1,1 178,0" fill="#cc7777"/>
<path d="M 1411,1200 a 89 89 0 0 0 178 0 a 89 89 0 0 0 -178 0 z m 51 0 a 38 38 0 0 0 76 0 a 38 38 0 0 0 -76 0 z" fill="#5555cc" stroke="#000000" stroke-width="3" fill-rule="evenodd"/>
<path d="M 1111,-1200 a 89,89 0 1,0 178,0" fill="#7777cc"/>
<path d="M 1111,-1200 a 89,89 0 1,1 178,0" fill="#cc7777"/>
<path d="M 1111,-1200 a 89 89 0 0 0 178 0 a 89 89 0 0 0 -178 0 z m 51 0 a 38 38 0 0 0 76 0 a 38 38 0 0 0 -76 0 z" fill="#5555cc" stroke="#000000" stroke-width="3" fill-rule="evenodd"/>
<path d="M 1411,-1200 a 89,89 0 1,0 178,0" fill="#7777cc"/>
<path d="M 1411,-1200 a 89,89 0 1,1 178,0" fill="#cc7777"/>
<path d="M 1411,-1200 a 89 89 0 0 0 178 0 a 89 89 0 0 0 -178 0 z m 51 0 a 38 38 0 0 0 76 0 a 38 38 0 0 0 -76 0 z" fill="#5555cc" stroke="#000000" stroke-width="3" fill-rule="evenodd"/>
<path d="M 1111,-1500 a 89,89 0 1,0 178,0" fill="#7777cc"/>
<path d="M 1111,-1500 a 89,89 0 1,1 178,0" fill="#cc7777"/>
<path d="M 1111,-1500 a 89 89 0 0 0 178 0 a 89 89 0 0 0 -178 0 z m 51 0 a 38 38 0 0 0 76 0 a 38 38 0 0 0 -76 0 z" fill="#5555cc" stroke="#000000" stroke-width="3" fill-rule="evenodd"/>
<path d="M -1289,1500 a 89 89 0 0 0 178 0 a 89 89 0 0 0 -178 0 z m 51 0 a 38 38 0 0 0 76 0 a 38 38 0 0 0 -76 0 z" fill="#cc5555" stroke="#000000" stroke-width="3" fill-rule="evenodd"/>
<path d="M -89,1500 a 89 89 0 0 0 178 0 a 89 89 0 0 0 -178 0 z m 51 0 a 38 38 0 0 0 76 0 a 38 38 0 0 0 -76 0 z" fill="#cc5555" stroke="#000000" stroke-width="3" fill-rule="evenodd"/>
<path d="M -1589,1200 a 89 89 0 0 0 178 0 a 89 89 0 0 0 -178 0 z m 51 0 a 38 38 0 0 0 76 0 a 38 38 0 0 0 -76 0 z" fill="#cc5555" stroke="#000000" stroke-width="3" fill-rule="evenodd"/>
<path d="M -1289,1200 a 89 89 0 0 0 178 0 a 89 89 0 0 0 -178 0 z m 51 0 a 38 38 0 0 0 76 0 a 38 38 0 0 0 -76 0 z" fill="#cc5555" stroke="#000000" stroke-width="3" fill-rule="evenodd"/>
<path d="M -689,1200 a 89 89 0 0 0 178 0 a 89 89 0 0 0 -178 0 z m 51 0 a 38 38 0 0 0 76 0 a 38 38 0 0 0 -76 0 z" fill="#cc5555" stroke="#000000" stroke-width="3" fill-rule="evenodd"/>
<path d="M 511,1200 a 89 89 0 0 0 178 0 a 89 89 0 0 0 -178 0 z m 51 0 a 38 38 0 0 0 76 0 a 38 38 0 0 0 -76 0 z" fill="#cc5555" stroke="#000000" stroke-width="3" fill-rule="evenodd"/>
<path d="M -689,600 a 89 89 0 0 0 178 0 a 89 89 0 0 0 -178 0 z m 51 0 a 38 38 0 0 0 76 0 a 38 38 0 0 0 -76 0 z" fill="#cc5555" stroke="#000000" stroke-width="3" fill-rule="evenodd"/>
<path d="M 511,600 a 89 89 0 0 0 178 0 a 89 89 0 0 0 -178 0 z m 51 0 a 38 38 0 0 0 76 0 a 38 38 0 0 0 -76 0 z" fill="#cc5555" stroke="#000000" stroke-width="3" fill-rule="evenodd"/>
<path d="M -89,0 a 89 89 0 0 0 178 0 a 89 89 0 0 0 -178 0 z m 51 0 a 38 38 0 0 0 76 0 a 38 38 0 0 0 -76 0 z" fill="#cc5555" stroke="#000000" stroke-width="3" fill-rule="evenodd"/>
<path d="M -689,-600 a 89 89 0 0 0 178 0 a 89 89 0 0 0 -178 0 z m 51 0 a 38 38 0 0 0 76 0 a 38 38 0 0 0 -76 0 z" fill="#cc5555" stroke="#000000" stroke-width="3" fill-rule="evenodd"/>
<path d="M 511,-600 a 89 89 0 0 0 178 0 a 89 89 0 0 0 -178 0 z m 51 0 a 38 38 0 0 0 76 0 a 38 38 0 0 0 -76 0 z" fill="#cc5555" stroke="#000000" stroke-width="3" fill-rule="evenodd"/>
<path d="M -1589,-1200 a 89 89 0 0 0 178 0 a 89 89 0 0 0 -178 0 z m 51 0 a 38 38 0 0 0 76 0 a 38 38 0 0 0 -76 0 z" fill="#cc5555" stroke="#000000" stroke-width="3" fill-rule="evenodd"/>
<path d="M -1289,-1200 a 89 89 0 0 0 178 0 a 89 89 0 0 0 -178 0 z m 51 0 a 38 38 0 0 0 76 0 a 38 38 0 0 0 -76 0 z" fill="#cc5555" stroke="#000000" stroke-width="3" fill-rule="evenodd"/>
<path d="M -689,-1200 a 89 89 0 0 0 178 0 a 89 89 0 0 0 -178 0 z m 51 0 a 38 38 0 0 0 76 0 a 38 38 0 0 0 -76 0 z" fill="#cc5555" stroke="#000000" stroke-width="3" fill-rule="evenodd"/>
<path d="M 511,-1200 a 89 89 0 0 0 178 0 a 89 89 0 0 0 -178 0 z m 51 0 a 38 38 0 0 0 76 0 a 38 38 0 0 0 -76 0 z" fill="#cc5555" stroke="#000000" stroke-width="3" fill-rule="evenodd"/>
<path d="M -1289,-1500 a 89 89 0 0 0 178 0 a 89 89 0 0 0 -178 0 z m 51 0 a 38 38 0 0 0 76 0 a 38 38 0 0 0 -76 0 z" fill="#cc5555" stroke="#000000" stroke-width="3" fill-rule="evenodd"/>
<path d="M -89,-1500 a 89 89 0 0 0 178 0 a 89 89 0 0 0 -178 0 z m 51 0 a 38 38 0 0 0 76 0 a 38 38 0 0 0 -76 0 z" fill="#cc5555" stroke="#000000" stroke-width="3" fill-rule="evenodd"/>
<path d="M 1411,600 a 89 89 0 0 0 178 0 a 89 89 0 0 0 -178 0 z m 51 0 a 38 38 0 0 0 76 0 a 38 38 0 0 0 -76 0 z" fill="#5555cc" stroke="#000000" stroke-width="3" fill-rule="evenodd"/>
<path d="M 1411,-600 a 89 89 0 0 0 178 0 a 89 89 0 0 0 -178 0 z m 51 0 a 38 38 0 0 0 76 0 a 38 38 0 0 0 -76 0 z" fill="#5555cc" stroke="#000000" stroke-width="3" fill-rule="evenodd"/>
<polyline points="-1647,3 -1227,3 -1227,603 -717,603 -607,1203 -1227,1503 -607,1203 -1407,1203 -1497,1353 -1247,603 -1197,3 -1197,-647 -597,-597 -597,-1197 -1197,-1497 -597,-1197 -1397,-1197 -1497,-1447 -1397,-1197 3,-1447 603,-1197 1203,-347 1203,3 603,-597 1403,-1397 1550,1399" fill="none" stroke="#ffffff" stroke-width="51" stroke-linejoin="round"/>
<polyline points="-1653,-3 -1233,-3 -1233,597 -723,597 -613,1197 -1233,1497 -613,1197 -1413,1197 -1503,1347 -1253,597 -1203,-3 -1203,-653 -603,-603 -603,-1203 -1203,-1503 -603,-1203 -1403,-1203 -1503,-1453 -1403,-1203 -3,-1453 597,-1203 1197,-353 1197,-3 597,-603 1397,-1403 1544,1393" fill="none" stroke="#ffffff" stroke-width="51" stroke-linejoin="round"/>
<polyline points="-1650,0 -1230,0 -1230,600 -720,600 -610,1200 -1230,1500 -610,1200 -1410,1200 -1500,1350 -1250,600 -1200,0 -1200,-650 -600,-600 -600,-1200 -1200,-1500 -600,-1200 -1400,-1200 -1500,-1450 -1400,-1200 0,-1450 600,-1200 1200,-350 1200,0 600,-600 1400,-1400 1547,1396" fill="none" stroke="#000000" stroke-width="51" stroke-dasharray="51,102" stroke-linejoin="round"/>
<polyline points="-1650,0 -1230,0 -1230,600 -720,600 -610,1200 -1230,1500 -610,1200 -1410,1200 -1500,1350 -1250,600 -1200,0 -1200,-650 -600,-600 -600,-1200 -1200,-1500 -600,-1200 -1400,-1200 -1500,-1450 -1400,-1200 0,-1450 600,-1200 1200,-350 1200,0 600,-600 1400,-1400 1547,1396" fill="none" stroke="#55ff55" stroke-width="51" stroke-dasharray="51,102" stroke-dashoffset="102" stroke-linejoin="round"/>
<polyline points="-1650,0 -1230,0 -1230,600 -720,600 -610,1200 -1230,1500 -610,1200 -1410,1200 -1500,1350 -1250,600 -1200,0 -1200,-650 -600,-600 -600,-1200 -1200,-1500 -600,-1200 -1400,-1200 -1500,-1450 -1400,-1200 0,-1450 600,-1200 1200,-350 1200,0 600,-600 1400,-1400 1547,1396" fill="none" stroke="#ffffff" stroke-width="51" stroke-dasharray="51,102" stroke-dashoffset="51" stroke-linejoin="round"/>
<path d="M -1650,0 l -77 133 a 89 89 0 1 0 154 0 z m -19 177 a 19 19 0 0 0 38 0 a 19 19 0 0 0 -38 0 z" fill="#ff0000" stroke="#ffffff" stroke-width="3" fill-rule="evenodd"/>
<path d="M -1230,600 l -77 133 a 89 89 0 1 0 154 0 z m -19 177 a 19 19 0 0 0 38 0 a 19 19 0 0 0 -38 0 z" fill="#ff0000" stroke="#ffffff" stroke-width="3" fill-rule="evenodd"/>
<path d="M -720,600 l -77 133 a 89 89 0 1 0 154 0 z m -19 177 a 19 19 0 0 0 38 0 a 19 19 0 0 0 -38 0 z" fill="#ff0000" stroke="#ffffff" stroke-width="3" fill-rule="evenodd"/>
<path d="M -610,1200 l -77 133 a 89 89 0 1 0 154 0 z m -19 177 a 19 19 0 0 0 38 0 a 19 19 0 0 0 -38 0 z" fill="#ff0000" stroke="#ffffff" stroke-width="3" fill-rule="evenodd"/>
<path d="M -1500,1350 l -77 133 a 89 89 0 1 0 154 0 z m -19 177 a 19 19 0 0 0 38 0 a 19 19 0 0 0 -38 0 z" fill="#ff0000" stroke="#ffffff" stroke-width="3" fill-rule="evenodd"/>
<path d="M -1250,600 l -77 133 a 89 89 0 1 0 154 0 z m -19 177 a 19 19 0 0 0 38 0 a 19 19 0 0 0 -38 0 z" fill="#ff0000" stroke="#ffffff" stroke-width="3" fill-rule="evenodd"/>
<path d="M -1200,0 l -77 133 a 89 89 0 1 0 154 0 z m -19 177 a 19 19 0 0 0 38 0 a 19 19 0 0 0 -38 0 z" fill="#ff0000" stroke="#ffffff" stroke-width="3" fill-rule="evenodd"/>
<path d="M -1200,-650 l -77 133 a 89 89 0 1 0 154 0 z m -19 177 a 19 19 0 0 0 38 0 a 19 19 0 0 0 -38 0 z" fill="#ff0000" stroke="#ffffff" stroke-width="3" fill-rule="evenodd"/>
<path d="M -600,-600 l -77 133 a 89 89 0 1 0 154 0 z m -19 177 a 19 19 0 0 0 38 0 a 19 19 0 0 0 -38 0 z" fill="#ff0000" stroke="#ffffff" stroke-width="3" fill-rule="evenodd"/>
<path d="M -600,-1200 l -77 133 a 89 89 0 1 0 154 0 z m -19 177 a 19 19 0 0 0 38 0 a 19 19 0 0 0 -38 0 z" fill="#ff0000" stroke="#ffffff" stroke-width="3" fill-rule="evenodd"/>
<path d="M -1200,-1500 l -77 133 a 89 89 0 1 0 154 0 z m -19 177 a 19 19 0 0 0 38 0 a 19 19 0 0 0 -38 0 z" fill="#ff0000" stroke="#ffffff" stroke-width="3" fill-rule="evenodd"/>
<path d="M -600,-1200 l -77 133 a 89 89 0 1 0 154 0 z m -19 177 a 19 19 0 0 0 38 0 a 19 19 0 0 0 -38 0 z" fill="#ff0000" stroke="#ffffff" stroke-width="3" fill-rule="evenodd"/>
<path d="M 0,-1450 l -77 133 a 89 89 0 1 0 154 0 z m -19 177 a 19 19 0 0 0 38 0 a 19 19 0 0 0 -38 0 z" fill="#ff0000" stroke="#ffffff" stroke-width="3" fill-rule="evenodd"/>
<path d="M 1547,1396 l -77 133 a 89 89 0 1 0 154 0 z m -19 177 a 19 19 0 0 0 38 0 a 19 19 0 0 0 -38 0 z" fill="#ff0000" stroke="#ffffff" stroke-width="3" fill-rule="evenodd"/>
</g>
</svg>
