<svg version="1.1" width="600" height="600" xmlns="http://www.w3.org/2000/svg" viewBox="-1800 -1800 3600 3600">
<g transform="scale(1, -1)">
<rect x="-1800" y="-1800" width="600" height="600" fill="#444444"/>
<rect x="-1800" y="-1200" width="600" height="600" fill="#333333"/>
<rect x="-1800" y="-600" width="600" height="600" fill="#444444"/>
<rect x="-1800" y="0" width="600" height="600" fill="#333333"/>
<rect x="-1800" y="600" width="600" height="600" fill="#444444"/>
<rect x="-1800" y="1200" width="600" height="600" fill="#333333"/>
<rect x="-1200" y="-1800" width="600" height="600" fill="#333333"/>
<rect x="-1200" y="-1200" width="600" height="600" fill="#444444"/>
<rect x="-1200" y="-600" width="600" height="600" fill="#333333"/>
<rect x="-1200" y="0" width="600" height="600" fill="#444444"/>
<rect x="-1200" y="600" width="600" height="600" fill="#333333"/>
<rect x="-1200" y="1200" width="600" height="600" fill="#444444"/>
<rect x="-600" y="-1800" width="600" height="600" fill="#444444"/>
<rect x="-600" y="-1200" width="600" height="600" fill="#333333"/>
<rect x="-600" y="-600" width="600" height="600" fill="#444444"/>
<rect x="-600" y="0" width="600" height="600" fill="#333333"/>
<rect x="-600" y="600" width="600" height="600" fill="#444444"/>
<rect x="-600" y="1200" width="600" height="600" fill="#333333"/>
<rect x="0" y="-1800" width="600" height="600" fill="#333333"/>
<rect x="0" y="-1200" width="600" height="600" fill="#444444"/>
<rect x="0" y="-600" width="600" height="600" fill="#333333"/>
<rect x="0" y="0" width="600" height="600" fill="#444444"/>
<rect x="0" y="600" width="600" height="600" fill="#333333"/>
<rect x="0" y="1200" width="600" height="600" fill="#444444"/>
<rect x="600" y="-1800" width="600" height="600" fill="#444444"/>
<rect x="600" y="-1200" width="600" height="600" fill="#333333"/>
<rect x="600" y="-600" width="600" height="600" fill="#444444"/>
<rect x="600" y="0" width="600" height="600" fill="#333333"/>
<rect x="600" y="600" width="600" height="600" fill="#444444"/>
<rect x="600" y="1200" width="600" height="600" fill="#333333"/>
<rect x="1200" y="-1800" width="600" height="600" fill="#333333"/>
<rect x="1200" y="-1200" width="600" height="600" fill="#444444"/>
<rect x="1200" y="-600" width="600" height="600" fill="#333333"/>
<rect x="1200" y="0" width="600" height="600" fill="#444444"/>
<rect x="1200" y="600" width="600" height="600" fill="#333333"/>
<rect x="1200" y="1200" width="600" height="600" fill="#444444"/>
<line x1="-1490" y1="-1800" x2="-1490" y2="1800" stroke="#cccccc" stroke-width="25"/>
<line x1="-30" y1="-1800" x2="-30" y2="1800" stroke="#cccccc" stroke-width="25"/>
<line x1="30" y1="-1800" x2="30" y2="1800" stroke="#cccccc" stroke-width="25"/>
<line x1="1490" y1="-1800" x2="1490" y2="1800" stroke="#cccccc" stroke-width="25"/>
<line x1="-1800" y1="-1490" x2="-1490" y2="-1800" stroke="#cccccc" stroke-width="25"/>
<line x1="1800" y1="-1490" x2="1490" y2="-1800" stroke="#cccccc" stroke-width="25"/>
<line x1="-1800" y1="1490" x2="-1490" y2="1800" stroke="#cccccc" stroke-width="25"/>
<line x1="1800" y1="1490" x2="1490" y2="1800" stroke="#cccccc" stroke-width="25"/>
<rect x="-420" y="-420" width="840" height="840" transform="rotate(45)" stroke="#cccc55" fill="none" stroke-width="51"/>
<polygon points="-1710,0 -1735,43 -1785,43 -1810,0 -1785,-43 -1735,-43" fill="#cc5555" stroke="#000000" stroke-width="3"/>
<polygon points="1810,0 1785,43 1735,43 1710,0 1735,-43 1785,-43" fill="#5555cc" stroke="#000000" stroke-width="3"/>
<polygon points="50,1760 25,1803 -25,1803 -50,1760 -25,1717 25,1717" fill="#cccc55" stroke="#000000" stroke-width="3"/>
<polygon points="50,-600 25,-557 -25,-557 -50,-600 -25,-643 25,-643" fill="#cccc55" stroke="#000000" stroke-width="3"/>
<polygon points="50,-1760 25,-1717 -25,-1717 -50,-1760 -25,-1803 25,-1803" fill="#cccc55" stroke="#000000" stroke-width="3"/>
<polygon points="-1074,600 -1137,709 -1263,709 -1326,600 -1263,491 -1137,491" fill="#cccc55" stroke="#000000" stroke-width="3"/>
<polygon points="-1100,600 -1150,686 -1250,686 -1300,600 -1250,514 -1150,514" fill="#333333" stroke="#000000" stroke-width="3"/>
<polygon points="-1150,600 -1175,643 -1225,643 -1250,600 -1225,557 -1175,557" fill="#cccc55" stroke="#000000" stroke-width="3"/>
<polygon points="1626,600 1563,709 1437,709 1374,600 1437,491 1563,491" fill="#cccc55" stroke="#000000" stroke-width="3"/>
<polygon points="1600,600 1550,686 1450,686 1400,600 1450,514 1550,514" fill="#333333" stroke="#000000" stroke-width="3"/>
<polygon points="1550,600 1525,643 1475,643 1450,600 1475,557 1525,557" fill="#cccc55" stroke="#000000" stroke-width="3"/>
<polygon points="1326,0 1263,109 1137,109 1074,0 1137,-109 1263,-109" fill="#cccc55" stroke="#000000" stroke-width="3"/>
<polygon points="1300,0 1250,86 1150,86 1100,0 1150,-86 1250,-86" fill="#333333" stroke="#000000" stroke-width="3"/>
<polygon points="1250,0 1225,43 1175,43 1150,0 1175,-43 1225,-43" fill="#cccc55" stroke="#000000" stroke-width="3"/>
<polygon points="-1074,-600 -1137,-491 -1263,-491 -1326,-600 -1263,-709 -1137,-709" fill="#cccc55" stroke="#000000" stroke-width="3"/>
<polygon points="-1100,-600 -1150,-514 -1250,-514 -1300,-600 -1250,-686 -1150,-686" fill="#333333" stroke="#000000" stroke-width="3"/>
<polygon points="-1150,-600 -1175,-557 -1225,-557 -1250,-600 -1225,-643 -1175,-643" fill="#cccc55" stroke="#000000" stroke-width="3"/>
<polygon points="1626,-600 1563,-491 1437,-491 1374,-600 1437,-709 1563,-709" fill="#cccc55" stroke="#000000" stroke-width="3"/>
<polygon points="1600,-600 1550,-514 1450,-514 1400,-600 1450,-686 1550,-686" fill="#333333" stroke="#000000" stroke-width="3"/>
<polygon points="1550,-600 1525,-557 1475,-557 1450,-600 1475,-643 1525,-643" fill="#cccc55" stroke="#000000" stroke-width="3"/>
<path d="M 1111,1500 a 89,89 0 1,0 178,0" fill="#7777cc"/>
<path d="M 1111,1500 a 89,89 0 1,1 178,0" fill="#cc7777"/>
<path d="M 1111,1500 a 89 89 0 0 0 178 0 a 89 89 0 0 0 -178 0 z m 51 0 a 38 38 0 0 0 76 0 a 38 38 0 0 0 -76 0 z" fill="#5555cc" stroke="#000000" stroke-width="3" fill-rule="evenodd"/>
<path d="M 1111,1200 a 89,89 0 1,0 178,0" fill="#7777cc"/>
<path d="M 1111,1200 a 89,89 0 1,1 178,0" fill="#cc7777"/>
<path d="M 1111,1200 a 89 89 0 0 0 178 0 a 89 89 0 0 0 -178 0 z m 51 0 a 38 38 0 0 0 76 0 a 38 38 0 0 0 -76 0 z" fill="#5555cc" stroke="#000000" stroke-width="3" fill-rule="evenodd"/>
<path d="M 1411,1200 a 89,89 0 1,0 178,0" fill="#7777cc"/>
<path d="M 1411,1200 a 89,89 0 1,1 178,0" fill="#cc7777"/>
<path d="M 1411,1200 a 89 89 0 0 0 178 0 a 89 89 0 0 0 -178 0 z m 51 0 a 38 38 0 0 0 76 0 a 38 38 0 0 0 -76 0 z" fill="#5555cc" stroke="#000000" stroke-width="3" fill-rule="evenodd"/>
<path d="M 1111,-1200 a 89,89 0 1,0 178,0" fill="#7777cc"/>
<path d="M 1111,-1200 a 89,89 0 1,1 178,0" fill="#cc7777"/>
<path d="M 1111,-1200 a 89 89 0 0 0 178 0 a 89 89 0 0 0 -178 0 z m 51 0 a 38 38 0 0 0 76 0 a 38 38 0 0 0 -76 0 z" fill="#5555cc" stroke="#000000" stroke-width="3" fill-rule="evenodd"/>
<path d="M 1411,-1200 a 89,89 0 1,0 178,0" fill="#7777cc"/>
<path d="M 1411,-1200 a 89,89 0 1,1 178,0" fill="#cc7777"/>
<path d="M 1411,-1200 a 89 89 0 0 0 178 0 a 89 89 0 0 0 -178 0 z m 51 0 a 38 38 0 0 0 76 0 a 38 38 0 0 0 -76 0 z" fill="#5555cc" stroke="#000000" stroke-width="3" fill-rule="evenodd"/>
<path d="M 1111,-1500 a 89,89 0 1,0 178,0" fill="#7777cc"/>
<path d="M 1111,-1500 a 89,89 0 1,1 178,0" fill="#cc7777"/>
<path d="M 1111,-1500 a 89 89 0 0 0 178 0 a 89 89 0 0 0 -178 0 z m 51 0 a 38 38 0 0 0 76 0 a 38 38 0 0 0 -76 0 z" fill="#5555cc" stroke="#000000" stroke-width="3" fill-rule="evenodd"/>
<path d="M -1289,1500 a 89 89 0 0 0 178 0 a 89 89 0 0 0 -178 0 z m 51 0 a 38 38 0 0 0 76 0 a 38 38 0 0 0 -76 0 z" fill="#cc5555" stroke="#000000" stroke-width="3" fill-rule="evenodd"/>
<path d="M -89,1500 a 89 89 0 0 0 178 0 a 89 89 0 0 0 -178 0 z m 51 0 a 38 38 0 0 0 76 0 a 38 38 0 0 0 -76 0 z" fill="#cc5555" stroke="#000000" stroke-width="3" fill-rule="evenodd"/>
<path d="M -1589,1200 a 89 89 0 0 0 178 0 a 89 89 0 0 0 -178 0 z m 51 0 a 38 38 0 0 0 76 0 a 38 38 0 0 0 -76 0 z" fill="#cc5555" stroke="#000000" stroke-width="3" fill-rule="evenodd"/>
<path d="M -1289,1200 a 89 89 0 0 0 178 0 a 89 89 0 0 0 -178 0 z m 51 0 a 38 38 0 0 0 76 0 a 38 38 0 0 0 -76 0 z" fill="#cc5555" stroke="#000000" stroke-width="3" fill-rule="evenodd"/>
<path d="M -689,1200 a 89 89 0 0 0 178 0 a 89 89 0 0 0 -178 0 z m 51 0 a 38 38 0 0 0 76 0 a 38 38 0 0 0 -76 0 z" fill="#cc5555" stroke="#000000" stroke-width="3" fill-rule="evenodd"/>
<path d="M 511,1200 a 89 89 0 0 0 178 0 a 89 89 0 0 0 -178 0 z m 51 0 a 38 38 0 0 0 76 0 a 38 38 0 0 0 -76 0 z" fill="#cc5555" stroke="#000000" stroke-width="3" fill-rule="evenodd"/>
<path d="M -689,600 a 89 89 0 0 0 178 0 a 89 89 0 0 0 -178 0 z m 51 0 a 38 38 0 0 0 76 0 a 38 38 0 0 0 -76 0 z" fill="#cc5555" stroke="#000000" stroke-width="3" fill-rule="evenodd"/>
<path d="M 511,600 a 89 89 0 0 0 178 0 a 89 89 0 0 0 -178 0 z m 51 0 a 38 38 0 0 0 76 0 a 38 38 0 0 0 -76 0 z" fill="#cc5555" stroke="#000000" stroke-width="3" fill-rule="evenodd"/>
<path d="M -89,0 a 89 89 0 0 0 178 0 a 89 89 0 0 0 -178 0 z m 51 0 a 38 38 0 0 0 76 0 a 38 38 0 0 0 -76 0 z" fill="#cc5555" stroke="#000000" stroke-width="3" fill-rule="evenodd"/>
<path d="M -689,-600 a 89 89 0 0 0 178 0 a 89 89 0 0 0 -178 0 z m 51 0 a 38 38 0 0 0 76 0 a 38 38 0 0 0 -76 0 z" fill="#cc5555" stroke="#000000" stroke-width="3" fill-rule="evenodd"/>
<path d="M 511,-600 a 89 89 0 0 0 178 0 a 89 89 0 0 0 -178 0 z m 51 0 a 38 38 0 0 0 76 0 a 38 38 0 0 0 -76 0 z" fill="#cc5555" stroke="#000000" stroke-width="3" fill-rule="evenodd"/>
<path d="M -1589,-1200 a 89 89 0 0 0 178 0 a 89 89 0 0 0 -178 0 z m 51 0 a 38 38 0 0 0 76 0 a 38 38 0 0 0 -76 0 z" fill="#cc5555" stroke="#000000" stroke-width="3" fill-rule="evenodd"/>
<path d="M -1289,-1200 a 89 89 0 0 0 178 0 a 89 89 0 0 0 -178 0 z m 51 0 a 38 38 0 0 0 76 0 a 38 38 0 0 0 -76 0 z" fill="#cc5555" stroke="#000000" stroke-width="3" fill-rule="evenodd"/>
<path d="M -689,-1200 a 89 89 0 0 0 178 0 a 89 89 0 0 0 -178 0 z m 51 0 a 38 38 0 0 0 76 0 a 38 38 0 0 0 -76 0 z" fill="#cc5555" stroke="#000000" stroke-width="3" fill-rule="evenodd"/>
<path d="M 511,-1200 a 89 89 0 0 0 178 0 a 89 89 0 0 0 -178 0 z m 51 0 a 38 38 0 0 0 76 0 a 38 38 0 0 0 -76 0 z" fill="#cc5555" stroke="#000000" stroke-width="3" fill-rule="evenodd"/>
<path d="M -1289,-1500 a 89 89 0 0 0 178 0 a 89 89 0 0 0 -178 0 z m 51 0 a 38 38 0 0 0 76 0 a 38 38 0 0 0 -76 0 z" fill="#cc5555" stroke="#000000" stroke-width="3" fill-rule="evenodd"/>
<path d="M -89,-1500 a 89 89 0 0 0 178 0 a 89 89 0 0 0 -178 0 z m 51 0 a 38 38 0 0 0 76 0 a 38 38 0 0 0 -76 0 z" fill="#cc5555" stroke="#000000" stroke-width="3" fill-rule="evenodd"/>
<path d="M 1411,600 a 89 89 0 0 0 178 0 a 89 89 0 0 0 -178 0 z m 51 0 a 38 38 0 0 0 76 0 a 38 38 0 0 0 -76 0 z" fill="#5555cc" stroke="#000000" stroke-width="3" fill-rule="evenodd"/>
<path d="M 1411,-600 a 89 89 0 0 0 178 0 a 89 89 0 0 0 -178 0 z m 51 0 a 38 38 0 0 0 76 0 a 38 38 0 0 0 -76 0 z" fill="#5555cc" stroke="#000000" stroke-width="3" fill-rule="evenodd"/>
<polyline points="-1647,3 -1467,3 -1467,603 -867,603 -867,1203 -1501,1499 -867,1203 -1667,1203 -1794,1475 -1464,768 -1464,-602 -864,-602 -864,-1202 -1499,-1498 -864,-1202 -1664,-1202 -1791,-1474 -1664,-1202 336,-1202 843,-114 348,-609 -288,27 370,641 370,1241 1122,1514 1279,-1482" fill="none" stroke="#ffffff" stroke-width="51" stroke-linejoin="round"/>
<polyline points="-1653,-3 -1473,-3 -1473,597 -873,597 -873,1197 -1507,1493 -873,1197 -1673,1197 -1800,1469 -1470,762 -1470,-608 -870,-608 -870,-1208 -1505,-1504 -870,-1208 -1670,-1208 -1797,-1480 -1670,-1208 330,-1208 837,-120 342,-615 -294,21 364,635 364,1235 1116,1508 1273,-1488" fill="none" stroke="#ffffff" stroke-width="51" stroke-linejoin="round"/>
<polyline points="-1650,0 -1470,0 -1470,600 -870,600 -870,1200 -1504,1496 -870,1200 -1670,1200 -1797,1472 -1467,765 -1467,-605 -867,-605 -867,-1205 -1502,-1501 -867,-1205 -1667,-1205 -1794,-1477 -1667,-1205 333,-1205 840,-117 345,-612 -291,24 367,638 367,1238 1119,1511 1276,-1485" fill="none" stroke="#000000" stroke-width="51" stroke-dasharray="51,102" stroke-linejoin="round"/>
<polyline points="-1650,0 -1470,0 -1470,600 -870,600 -870,1200 -1504,1496 -870,1200 -1670,1200 -1797,1472 -1467,765 -1467,-605 -867,-605 -867,-1205 -1502,-1501 -867,-1205 -1667,-1205 -1794,-1477 -1667,-1205 333,-1205 840,-117 345,-612 -291,24 367,638 367,1238 1119,1511 1276,-1485" fill="none" stroke="#55ff55" stroke-width="51" stroke-dasharray="51,102" stroke-dashoffset="102" stroke-linejoin="round"/>
<polyline points="-1650,0 -1470,0 -1470,600 -870,600 -870,1200 -1504,1496 -870,1200 -1670,1200 -1797,1472 -1467,765 -1467,-605 -867,-605 -867,-1205 -1502,-1501 -867,-1205 -1667,-1205 -1794,-1477 -1667,-1205 333,-1205 840,-117 345,-612 -291,24 367,638 367,1238 1119,1511 1276,-1485" fill="none" stroke="#ffffff" stroke-width="51" stroke-dasharray="51,102" stroke-dashoffset="51" stroke-linejoin="round"/>
<path d="M -1650,0 l -77 133 a 89 89 0 1 0 154 0 z m -19 177 a 19 19 0 0 0 38 0 a 19 19 0 0 0 -38 0 z" fill="#ff0000" stroke="#ffffff" stroke-width="3" fill-rule="evenodd"/>
<path d="M -1470,600 l -77 133 a 89 89 0 1 0 154 0 z m -19 177 a 19 19 0 0 0 38 0 a 19 19 0 0 0 -38 0 z" fill="#ff0000" stroke="#ffffff" stroke-width="3" fill-rule="evenodd"/>
<path d="M -870,600 l -77 133 a 89 89 0 1 0 154 0 z m -19 177 a 19 19 0 0 0 38 0 a 19 19 0 0 0 -38 0 z" fill="#ff0000" stroke="#ffffff" stroke-width="3" fill-rule="evenodd"/>
<path d="M -870,1200 l -77 133 a 89 89 0 1 0 154 0 z m -19 177 a 19 19 0 0 0 38 0 a 19 19 0 0 0 -38 0 z" fill="#ff0000" stroke="#ffffff" stroke-width="3" fill-rule="evenodd"/>
<path d="M -1467,765 l -77 133 a 89 89 0 1 0 154 0 z m -19 177 a 19 19 0 0 0 38 0 a 19 19 0 0 0 -38 0 z" fill="#ff0000" stroke="#ffffff" stroke-width="3" fill-rule="evenodd"/>
<path d="M -1467,-605 l -77 133 a 89 89 0 1 0 154 0 z m -19 177 a 19 19 0 0 0 38 0 a 19 19 0 0 0 -38 0 z" fill="#ff0000" stroke="#ffffff" stroke-width="3" fill-rule="evenodd"/>
<path d="M -867,-1205 l -77 133 a 89 89 0 1 0 154 0 z m -19 177 a 19 19 0 0 0 38 0 a 19 19 0 0 0 -38 0 z" fill="#ff0000" stroke="#ffffff" stroke-width="3" fill-rule="evenodd"/>
<path d="M -1667,-1205 l -77 133 a 89 89 0 1 0 154 0 z m -19 177 a 19 19 0 0 0 38 0 a 19 19 0 0 0 -38 0 z" fill="#ff0000" stroke="#ffffff" stroke-width="3" fill-rule="evenodd"/>
<path d="M 333,-1205 l -77 133 a 89 89 0 1 0 154 0 z m -19 177 a 19 19 0 0 0 38 0 a 19 19 0 0 0 -38 0 z" fill="#ff0000" stroke="#ffffff" stroke-width="3" fill-rule="evenodd"/>
<path d="M 840,-117 l -77 133 a 89 89 0 1 0 154 0 z m -19 177 a 19 19 0 0 0 38 0 a 19 19 0 0 0 -38 0 z" fill="#ff0000" stroke="#ffffff" stroke-width="3" fill-rule="evenodd"/>
<path d="M 345,-612 l -77 133 a 89 89 0 1 0 154 0 z m -19 177 a 19 19 0 0 0 38 0 a 19 19 0 0 0 -38 0 z" fill="#ff0000" stroke="#ffffff" stroke-width="3" fill-rule="evenodd"/>
<path d="M 367,638 l -77 133 a 89 89 0 1 0 154 0 z m -19 177 a 19 19 0 0 0 38 0 a 19 19 0 0 0 -38 0 z" fill="#ff0000" stroke="#ffffff" stroke-width="3" fill-rule="evenodd"/>
<path d="M 367,1238 l -77 133 a 89 89 0 1 0 154 0 z m -19 177 a 19 19 0 0 0 38 0 a 19 19 0 0 0 -38 0 z" fill="#ff0000" stroke="#ffffff" stroke-width="3" fill-rule="evenodd"/>
<path d="M 1119,1511 l -77 133 a 89 89 0 1 0 154 0 z m -19 177 a 19 19 0 0 0 38 0 a 19 19 0 0 0 -38 0 z" fill="#ff0000" stroke="#ffffff" stroke-width="3" fill-rule="evenodd"/>
</g>
</svg>
